<mxfile host="Electron" agent="Mozilla/5.0 (Windows NT 10.0; Win64; x64) AppleWebKit/537.36 (KHTML, like Gecko) draw.io/26.0.16 Chrome/132.0.6834.196 Electron/34.2.0 Safari/537.36" version="26.0.16">
  <diagram name="Pàgina-1" id="XSH9-jfwL96u5vc48u0e">
    <mxGraphModel dx="1927" dy="902" grid="1" gridSize="10" guides="1" tooltips="1" connect="1" arrows="1" fold="1" page="1" pageScale="1" pageWidth="827" pageHeight="1169" math="0" shadow="0">
      <root>
        <mxCell id="0" />
        <mxCell id="1" parent="0" />
        <mxCell id="MGVAmQVO2k6T0Lkb56UJ-2" value="Ejercicio 11:&lt;div&gt;&lt;br&gt;&lt;/div&gt;" style="text;html=1;align=left;verticalAlign=middle;whiteSpace=wrap;rounded=0;" vertex="1" parent="1">
          <mxGeometry x="80" y="20" width="760" height="40" as="geometry" />
        </mxCell>
        <mxCell id="MGVAmQVO2k6T0Lkb56UJ-67" value="" style="edgeStyle=orthogonalEdgeStyle;rounded=0;orthogonalLoop=1;jettySize=auto;html=1;" edge="1" parent="1" source="MGVAmQVO2k6T0Lkb56UJ-22" target="MGVAmQVO2k6T0Lkb56UJ-35">
          <mxGeometry relative="1" as="geometry" />
        </mxCell>
        <mxCell id="MGVAmQVO2k6T0Lkb56UJ-22" value="CASA" style="rounded=0;whiteSpace=wrap;html=1;" vertex="1" parent="1">
          <mxGeometry x="400" y="190" width="70" height="30" as="geometry" />
        </mxCell>
        <mxCell id="MGVAmQVO2k6T0Lkb56UJ-23" value="nombre" style="ellipse;whiteSpace=wrap;html=1;fontStyle=4" vertex="1" parent="1">
          <mxGeometry x="300" y="100" width="90" height="40" as="geometry" />
        </mxCell>
        <mxCell id="MGVAmQVO2k6T0Lkb56UJ-24" value="capacidad" style="ellipse;whiteSpace=wrap;html=1;" vertex="1" parent="1">
          <mxGeometry x="460" y="110" width="80" height="30" as="geometry" />
        </mxCell>
        <mxCell id="MGVAmQVO2k6T0Lkb56UJ-26" value="ACTIVIDAD" style="rounded=0;whiteSpace=wrap;html=1;" vertex="1" parent="1">
          <mxGeometry x="810" y="190" width="80" height="30" as="geometry" />
        </mxCell>
        <mxCell id="MGVAmQVO2k6T0Lkb56UJ-28" style="edgeStyle=orthogonalEdgeStyle;rounded=0;orthogonalLoop=1;jettySize=auto;html=1;" edge="1" parent="1" source="MGVAmQVO2k6T0Lkb56UJ-27" target="MGVAmQVO2k6T0Lkb56UJ-22">
          <mxGeometry relative="1" as="geometry" />
        </mxCell>
        <mxCell id="MGVAmQVO2k6T0Lkb56UJ-30" value="1:N" style="edgeLabel;html=1;align=center;verticalAlign=middle;resizable=0;points=[];" vertex="1" connectable="0" parent="MGVAmQVO2k6T0Lkb56UJ-28">
          <mxGeometry x="0.04" y="1" relative="1" as="geometry">
            <mxPoint y="-16" as="offset" />
          </mxGeometry>
        </mxCell>
        <mxCell id="MGVAmQVO2k6T0Lkb56UJ-29" style="edgeStyle=orthogonalEdgeStyle;rounded=0;orthogonalLoop=1;jettySize=auto;html=1;" edge="1" parent="1" source="MGVAmQVO2k6T0Lkb56UJ-27" target="MGVAmQVO2k6T0Lkb56UJ-26">
          <mxGeometry relative="1" as="geometry" />
        </mxCell>
        <mxCell id="MGVAmQVO2k6T0Lkb56UJ-31" value="1:N" style="edgeLabel;html=1;align=center;verticalAlign=middle;resizable=0;points=[];" vertex="1" connectable="0" parent="MGVAmQVO2k6T0Lkb56UJ-29">
          <mxGeometry x="-0.0733" relative="1" as="geometry">
            <mxPoint y="-15" as="offset" />
          </mxGeometry>
        </mxCell>
        <mxCell id="MGVAmQVO2k6T0Lkb56UJ-27" value="PRACTICA" style="rhombus;whiteSpace=wrap;html=1;" vertex="1" parent="1">
          <mxGeometry x="590" y="182.5" width="100" height="45" as="geometry" />
        </mxCell>
        <mxCell id="MGVAmQVO2k6T0Lkb56UJ-39" style="edgeStyle=orthogonalEdgeStyle;rounded=0;orthogonalLoop=1;jettySize=auto;html=1;" edge="1" parent="1" source="MGVAmQVO2k6T0Lkb56UJ-32" target="MGVAmQVO2k6T0Lkb56UJ-27">
          <mxGeometry relative="1" as="geometry" />
        </mxCell>
        <mxCell id="MGVAmQVO2k6T0Lkb56UJ-32" value="calidad" style="ellipse;whiteSpace=wrap;html=1;" vertex="1" parent="1">
          <mxGeometry x="602.5" y="300" width="75" height="30" as="geometry" />
        </mxCell>
        <mxCell id="MGVAmQVO2k6T0Lkb56UJ-42" style="edgeStyle=orthogonalEdgeStyle;rounded=0;orthogonalLoop=1;jettySize=auto;html=1;" edge="1" parent="1" source="MGVAmQVO2k6T0Lkb56UJ-33" target="MGVAmQVO2k6T0Lkb56UJ-38">
          <mxGeometry relative="1" as="geometry" />
        </mxCell>
        <mxCell id="MGVAmQVO2k6T0Lkb56UJ-73" value="" style="edgeStyle=orthogonalEdgeStyle;rounded=0;orthogonalLoop=1;jettySize=auto;html=1;" edge="1" parent="1" source="MGVAmQVO2k6T0Lkb56UJ-33" target="MGVAmQVO2k6T0Lkb56UJ-38">
          <mxGeometry relative="1" as="geometry" />
        </mxCell>
        <mxCell id="MGVAmQVO2k6T0Lkb56UJ-74" value="0:N" style="edgeLabel;html=1;align=center;verticalAlign=middle;resizable=0;points=[];" vertex="1" connectable="0" parent="MGVAmQVO2k6T0Lkb56UJ-73">
          <mxGeometry x="0.1725" y="3" relative="1" as="geometry">
            <mxPoint x="12" as="offset" />
          </mxGeometry>
        </mxCell>
        <mxCell id="MGVAmQVO2k6T0Lkb56UJ-33" value="NINIO" style="rounded=0;whiteSpace=wrap;html=1;" vertex="1" parent="1">
          <mxGeometry x="80" y="188.75" width="70" height="32.5" as="geometry" />
        </mxCell>
        <mxCell id="MGVAmQVO2k6T0Lkb56UJ-40" style="edgeStyle=orthogonalEdgeStyle;rounded=0;orthogonalLoop=1;jettySize=auto;html=1;" edge="1" parent="1" source="MGVAmQVO2k6T0Lkb56UJ-35" target="MGVAmQVO2k6T0Lkb56UJ-22">
          <mxGeometry relative="1" as="geometry" />
        </mxCell>
        <mxCell id="MGVAmQVO2k6T0Lkb56UJ-66" value="1:N" style="edgeLabel;html=1;align=center;verticalAlign=middle;resizable=0;points=[];" vertex="1" connectable="0" parent="MGVAmQVO2k6T0Lkb56UJ-40">
          <mxGeometry x="0.32" y="-3" relative="1" as="geometry">
            <mxPoint x="-13" y="-18" as="offset" />
          </mxGeometry>
        </mxCell>
        <mxCell id="MGVAmQVO2k6T0Lkb56UJ-41" style="edgeStyle=orthogonalEdgeStyle;rounded=0;orthogonalLoop=1;jettySize=auto;html=1;" edge="1" parent="1" source="MGVAmQVO2k6T0Lkb56UJ-35" target="MGVAmQVO2k6T0Lkb56UJ-33">
          <mxGeometry relative="1" as="geometry" />
        </mxCell>
        <mxCell id="MGVAmQVO2k6T0Lkb56UJ-65" value="0:N" style="edgeLabel;html=1;align=center;verticalAlign=middle;resizable=0;points=[];" vertex="1" connectable="0" parent="MGVAmQVO2k6T0Lkb56UJ-41">
          <mxGeometry x="0.1155" y="-2" relative="1" as="geometry">
            <mxPoint y="-14" as="offset" />
          </mxGeometry>
        </mxCell>
        <mxCell id="MGVAmQVO2k6T0Lkb56UJ-35" value="SE ALOJA" style="rhombus;whiteSpace=wrap;html=1;" vertex="1" parent="1">
          <mxGeometry x="220" y="180" width="130" height="50" as="geometry" />
        </mxCell>
        <mxCell id="MGVAmQVO2k6T0Lkb56UJ-49" style="edgeStyle=orthogonalEdgeStyle;rounded=0;orthogonalLoop=1;jettySize=auto;html=1;" edge="1" parent="1" source="MGVAmQVO2k6T0Lkb56UJ-37" target="MGVAmQVO2k6T0Lkb56UJ-50">
          <mxGeometry relative="1" as="geometry" />
        </mxCell>
        <mxCell id="MGVAmQVO2k6T0Lkb56UJ-61" value="1:1" style="edgeLabel;html=1;align=center;verticalAlign=middle;resizable=0;points=[];" vertex="1" connectable="0" parent="MGVAmQVO2k6T0Lkb56UJ-49">
          <mxGeometry x="-0.2389" y="1" relative="1" as="geometry">
            <mxPoint y="-14" as="offset" />
          </mxGeometry>
        </mxCell>
        <mxCell id="MGVAmQVO2k6T0Lkb56UJ-37" value="COMARCA" style="rounded=0;whiteSpace=wrap;html=1;" vertex="1" parent="1">
          <mxGeometry x="247.5" y="420" width="95" height="30" as="geometry" />
        </mxCell>
        <mxCell id="MGVAmQVO2k6T0Lkb56UJ-43" style="edgeStyle=orthogonalEdgeStyle;rounded=0;orthogonalLoop=1;jettySize=auto;html=1;entryX=0;entryY=0.75;entryDx=0;entryDy=0;" edge="1" parent="1" source="MGVAmQVO2k6T0Lkb56UJ-38" target="MGVAmQVO2k6T0Lkb56UJ-37">
          <mxGeometry relative="1" as="geometry">
            <Array as="points">
              <mxPoint x="115" y="443" />
              <mxPoint x="203" y="443" />
            </Array>
          </mxGeometry>
        </mxCell>
        <mxCell id="MGVAmQVO2k6T0Lkb56UJ-62" value="1:1" style="edgeLabel;html=1;align=center;verticalAlign=middle;resizable=0;points=[];" vertex="1" connectable="0" parent="MGVAmQVO2k6T0Lkb56UJ-43">
          <mxGeometry x="0.2397" y="1" relative="1" as="geometry">
            <mxPoint x="7" y="-12" as="offset" />
          </mxGeometry>
        </mxCell>
        <mxCell id="MGVAmQVO2k6T0Lkb56UJ-38" value="VIVE" style="rhombus;whiteSpace=wrap;html=1;" vertex="1" parent="1">
          <mxGeometry x="71.25" y="310" width="87.5" height="30" as="geometry" />
        </mxCell>
        <mxCell id="MGVAmQVO2k6T0Lkb56UJ-44" value="codigo_ninio" style="ellipse;whiteSpace=wrap;html=1;fontStyle=4" vertex="1" parent="1">
          <mxGeometry x="65" y="60" width="100" height="40" as="geometry" />
        </mxCell>
        <mxCell id="MGVAmQVO2k6T0Lkb56UJ-45" value="nombre" style="ellipse;whiteSpace=wrap;html=1;" vertex="1" parent="1">
          <mxGeometry x="-70" y="110" width="80" height="30" as="geometry" />
        </mxCell>
        <mxCell id="MGVAmQVO2k6T0Lkb56UJ-46" value="apellido" style="ellipse;whiteSpace=wrap;html=1;" vertex="1" parent="1">
          <mxGeometry x="-80" y="220" width="80" height="30" as="geometry" />
        </mxCell>
        <mxCell id="MGVAmQVO2k6T0Lkb56UJ-47" value="nº habitantes" style="ellipse;whiteSpace=wrap;html=1;" vertex="1" parent="1">
          <mxGeometry x="324" y="510" width="90" height="40" as="geometry" />
        </mxCell>
        <mxCell id="MGVAmQVO2k6T0Lkb56UJ-48" value="superficie" style="ellipse;whiteSpace=wrap;html=1;" vertex="1" parent="1">
          <mxGeometry x="190" y="510" width="80" height="30" as="geometry" />
        </mxCell>
        <mxCell id="MGVAmQVO2k6T0Lkb56UJ-60" style="edgeStyle=orthogonalEdgeStyle;rounded=0;orthogonalLoop=1;jettySize=auto;html=1;" edge="1" parent="1" source="MGVAmQVO2k6T0Lkb56UJ-50" target="MGVAmQVO2k6T0Lkb56UJ-22">
          <mxGeometry relative="1" as="geometry" />
        </mxCell>
        <mxCell id="MGVAmQVO2k6T0Lkb56UJ-64" value="0:N" style="edgeLabel;html=1;align=center;verticalAlign=middle;resizable=0;points=[];" vertex="1" connectable="0" parent="MGVAmQVO2k6T0Lkb56UJ-60">
          <mxGeometry x="-0.12" y="3" relative="1" as="geometry">
            <mxPoint x="-32" y="-6" as="offset" />
          </mxGeometry>
        </mxCell>
        <mxCell id="MGVAmQVO2k6T0Lkb56UJ-50" value="CONTIENE" style="rhombus;whiteSpace=wrap;html=1;" vertex="1" parent="1">
          <mxGeometry x="387.5" y="302.5" width="95" height="45" as="geometry" />
        </mxCell>
        <mxCell id="MGVAmQVO2k6T0Lkb56UJ-52" style="edgeStyle=orthogonalEdgeStyle;rounded=0;orthogonalLoop=1;jettySize=auto;html=1;" edge="1" parent="1" source="MGVAmQVO2k6T0Lkb56UJ-51" target="MGVAmQVO2k6T0Lkb56UJ-26">
          <mxGeometry relative="1" as="geometry" />
        </mxCell>
        <mxCell id="MGVAmQVO2k6T0Lkb56UJ-51" value="id_actividad" style="ellipse;whiteSpace=wrap;html=1;fontStyle=4" vertex="1" parent="1">
          <mxGeometry x="810" y="302.5" width="80" height="40" as="geometry" />
        </mxCell>
        <mxCell id="MGVAmQVO2k6T0Lkb56UJ-53" value="" style="endArrow=none;html=1;rounded=0;" edge="1" parent="1" source="MGVAmQVO2k6T0Lkb56UJ-22" target="MGVAmQVO2k6T0Lkb56UJ-23">
          <mxGeometry width="50" height="50" relative="1" as="geometry">
            <mxPoint x="390" y="470" as="sourcePoint" />
            <mxPoint x="440" y="420" as="targetPoint" />
          </mxGeometry>
        </mxCell>
        <mxCell id="MGVAmQVO2k6T0Lkb56UJ-54" value="" style="endArrow=none;html=1;rounded=0;" edge="1" parent="1" source="MGVAmQVO2k6T0Lkb56UJ-22" target="MGVAmQVO2k6T0Lkb56UJ-24">
          <mxGeometry width="50" height="50" relative="1" as="geometry">
            <mxPoint x="390" y="470" as="sourcePoint" />
            <mxPoint x="440" y="420" as="targetPoint" />
          </mxGeometry>
        </mxCell>
        <mxCell id="MGVAmQVO2k6T0Lkb56UJ-55" value="" style="endArrow=none;html=1;rounded=0;" edge="1" parent="1" source="MGVAmQVO2k6T0Lkb56UJ-33" target="MGVAmQVO2k6T0Lkb56UJ-44">
          <mxGeometry width="50" height="50" relative="1" as="geometry">
            <mxPoint x="390" y="470" as="sourcePoint" />
            <mxPoint x="440" y="420" as="targetPoint" />
          </mxGeometry>
        </mxCell>
        <mxCell id="MGVAmQVO2k6T0Lkb56UJ-56" value="" style="endArrow=none;html=1;rounded=0;" edge="1" parent="1" source="MGVAmQVO2k6T0Lkb56UJ-33" target="MGVAmQVO2k6T0Lkb56UJ-45">
          <mxGeometry width="50" height="50" relative="1" as="geometry">
            <mxPoint x="390" y="470" as="sourcePoint" />
            <mxPoint x="440" y="420" as="targetPoint" />
          </mxGeometry>
        </mxCell>
        <mxCell id="MGVAmQVO2k6T0Lkb56UJ-57" value="" style="endArrow=none;html=1;rounded=0;" edge="1" parent="1" source="MGVAmQVO2k6T0Lkb56UJ-33" target="MGVAmQVO2k6T0Lkb56UJ-46">
          <mxGeometry width="50" height="50" relative="1" as="geometry">
            <mxPoint x="390" y="470" as="sourcePoint" />
            <mxPoint x="440" y="420" as="targetPoint" />
          </mxGeometry>
        </mxCell>
        <mxCell id="MGVAmQVO2k6T0Lkb56UJ-58" value="" style="endArrow=none;html=1;rounded=0;" edge="1" parent="1" source="MGVAmQVO2k6T0Lkb56UJ-48" target="MGVAmQVO2k6T0Lkb56UJ-37">
          <mxGeometry width="50" height="50" relative="1" as="geometry">
            <mxPoint x="390" y="470" as="sourcePoint" />
            <mxPoint x="440" y="420" as="targetPoint" />
          </mxGeometry>
        </mxCell>
        <mxCell id="MGVAmQVO2k6T0Lkb56UJ-59" value="" style="endArrow=none;html=1;rounded=0;" edge="1" parent="1" source="MGVAmQVO2k6T0Lkb56UJ-47" target="MGVAmQVO2k6T0Lkb56UJ-37">
          <mxGeometry width="50" height="50" relative="1" as="geometry">
            <mxPoint x="390" y="470" as="sourcePoint" />
            <mxPoint x="440" y="420" as="targetPoint" />
          </mxGeometry>
        </mxCell>
        <mxCell id="MGVAmQVO2k6T0Lkb56UJ-70" value="CASA (nombre, capacidad, comarca)&lt;div&gt;on {comarca} referencia COMARCA&lt;br&gt;&lt;div&gt;ACTIVIDAD (id_actividad)&lt;/div&gt;&lt;div&gt;PRACTICA(nombre_casa, id_actividad, calidad)&lt;/div&gt;&lt;div&gt;on {nombre_casa} referencia CASA&lt;/div&gt;&lt;div&gt;on {id_actividad} referencia ACTIVIDAD&lt;/div&gt;&lt;div&gt;NINIO (codigo_ninio, nombre, apellido, comarca_vive, nombre_casa)&lt;/div&gt;&lt;div&gt;on {comarca_vive} referencia COMARCA&lt;/div&gt;&lt;div&gt;on {nombre_casa} referencia CASA&lt;/div&gt;&lt;div&gt;COMARCA (nombre, superficie, habitantes)&lt;/div&gt;&lt;/div&gt;" style="text;html=1;align=left;verticalAlign=middle;whiteSpace=wrap;rounded=0;" vertex="1" parent="1">
          <mxGeometry x="20" y="590" width="510" height="140" as="geometry" />
        </mxCell>
        <mxCell id="MGVAmQVO2k6T0Lkb56UJ-72" style="edgeStyle=orthogonalEdgeStyle;rounded=0;orthogonalLoop=1;jettySize=auto;html=1;" edge="1" parent="1" source="MGVAmQVO2k6T0Lkb56UJ-71" target="MGVAmQVO2k6T0Lkb56UJ-37">
          <mxGeometry relative="1" as="geometry" />
        </mxCell>
        <mxCell id="MGVAmQVO2k6T0Lkb56UJ-71" value="nombre" style="ellipse;whiteSpace=wrap;html=1;" vertex="1" parent="1">
          <mxGeometry x="255" y="342.5" width="80" height="30" as="geometry" />
        </mxCell>
      </root>
    </mxGraphModel>
  </diagram>
</mxfile>
